<svg width="144" height="152" viewBox="0 0 144 152" fill="none" xmlns="http://www.w3.org/2000/svg">
<path d="M72.242 151.257V0L0 25.962L11.2878 118.522L72.242 151.257Z" fill="#313947"/>
<path d="M72.2422 151.257V0L143.355 25.962L132.068 118.522L72.2422 151.257Z" fill="#313947"/>
<path d="M45.1513 117.391H27.0908L72.2421 18.0586L117.393 117.391H99.3328L90.3026 94.8157H53.0528L45.1513 117.391Z" fill="#313947"/>
<path d="M72.2422 49.668L85.7876 81.2738H72.2422V49.668Z" fill="#313947"/>
<path d="M72.2422 49.668L58.6968 81.2738H72.2422V49.668Z" fill="#313947"/>
<path d="M73.0204 133.872V17.3867L17.3857 37.3804L26.0787 108.662L73.0204 133.872Z" fill="#DD0031"/>
<path d="M73.0208 133.872V17.3867L127.786 37.3804L119.093 108.662L73.0208 133.872Z" fill="#C3002F"/>
<path d="M52.1567 107.795H38.248L73.0197 31.2969L107.791 107.795H93.8827L86.9284 90.4087H58.2417L52.1567 107.795Z" fill="white"/>
<path d="M73.0205 55.6367L83.452 79.9769H73.0205V55.6367Z" fill="#C3002F"/>
<path d="M73.0205 55.6367L62.589 79.9769H73.0205V55.6367Z" fill="#DD0031"/>
</svg>
