<svg width="153" height="153" viewBox="0 0 153 153" fill="none" xmlns="http://www.w3.org/2000/svg">
<rect width="153" height="153" rx="5" fill="#FEB04A"/>
<path d="M71.9721 71.9358H84.8105V119.102C84.8105 123.438 83.9261 127.275 82.1572 130.612C80.4169 133.919 77.9491 136.477 74.7537 138.286C71.5584 140.095 67.9493 141 63.9266 141C57.3362 141 52.2009 139.175 48.5205 135.525C44.8402 131.844 43 126.651 43 119.944H55.924C55.924 123.282 56.5659 125.746 57.8498 127.337C59.1336 128.928 61.1592 129.723 63.9266 129.723C66.3802 129.723 68.3345 128.803 69.7895 126.963C71.2445 125.122 71.9721 122.502 71.9721 119.102V71.9358Z" fill="black"/>
<path d="M128.119 122.19C128.119 119.538 127.263 117.511 125.551 116.107C123.839 114.672 120.758 113.175 116.307 111.615C111.857 110.024 108.333 108.464 105.737 106.936C98.6617 102.756 95.124 97.1252 95.124 90.0441C95.124 86.3632 96.0655 83.0878 97.9485 80.2179C99.86 77.3168 102.585 75.0553 106.122 73.4332C109.688 71.8111 113.683 71 118.105 71C122.555 71 126.521 71.889 130.002 73.6671C133.482 75.414 136.178 77.8939 138.09 81.107C140.03 84.32 141 87.9697 141 92.0562H128.162C128.162 88.9367 127.263 86.5192 125.465 84.8035C123.668 83.0566 121.143 82.1832 117.891 82.1832C114.753 82.1832 112.313 82.9162 110.573 84.3824C108.833 85.8173 107.962 87.7201 107.962 90.0909C107.962 92.3057 108.975 94.1618 111.001 95.6591C113.055 97.1564 116.065 98.5602 120.031 99.8703C127.334 102.272 132.655 105.251 135.993 108.807C139.331 112.364 141 116.793 141 122.096C141 127.992 138.96 132.624 134.88 135.993C130.801 139.331 125.309 141 118.404 141C113.611 141 109.246 140.049 105.309 138.146C101.372 136.212 98.3622 133.576 96.2795 130.238C94.2253 126.9 93.1983 123.032 93.1983 118.634H106.079C106.079 126.152 110.188 129.91 118.404 129.91C121.457 129.91 123.839 129.24 125.551 127.898C127.263 126.526 128.119 124.623 128.119 122.19Z" fill="black"/>
</svg>
