<svg width="20" height="20" viewBox="0 0 20 20" fill="none" xmlns="http://www.w3.org/2000/svg">
<path d="M8.16667 0.5H1C0.723858 0.5 0.5 0.723858 0.5 1V10.6667C0.5 10.9428 0.723858 11.1667 1 11.1667H8.16667C8.44281 11.1667 8.66667 10.9428 8.66667 10.6667V1C8.66667 0.723858 8.44281 0.5 8.16667 0.5Z" fill="white" stroke="white"/>
<path d="M19.0007 8.83301H11.834C11.5578 8.83301 11.334 9.05687 11.334 9.33301V18.9997C11.334 19.2759 11.5578 19.4997 11.834 19.4997H19.0007C19.2768 19.4997 19.5007 19.2759 19.5007 18.9997V9.33301C19.5007 9.05687 19.2768 8.83301 19.0007 8.83301Z" fill="white" stroke="white"/>
<path d="M8.16667 13.833H1C0.723858 13.833 0.5 14.0569 0.5 14.333V18.9997C0.5 19.2758 0.723858 19.4997 1 19.4997H8.16667C8.44281 19.4997 8.66667 19.2758 8.66667 18.9997V14.333C8.66667 14.0569 8.44281 13.833 8.16667 13.833Z" fill="white" stroke="white"/>
<path d="M19.0007 0.5H11.834C11.5578 0.5 11.334 0.723858 11.334 1V5.66667C11.334 5.94281 11.5578 6.16667 11.834 6.16667H19.0007C19.2768 6.16667 19.5007 5.94281 19.5007 5.66667V1C19.5007 0.723858 19.2768 0.5 19.0007 0.5Z" fill="#81D4BB" stroke="#81D4BB"/>
</svg>
