<svg width="20" height="20" viewBox="0 0 20 20" fill="none" xmlns="http://www.w3.org/2000/svg">
<path d="M8.16667 0.5H1C0.723858 0.5 0.5 0.723858 0.5 1V10.6667C0.5 10.9428 0.723858 11.1667 1 11.1667H8.16667C8.44281 11.1667 8.66667 10.9428 8.66667 10.6667V1C8.66667 0.723858 8.44281 0.5 8.16667 0.5Z" stroke="white"/>
<path d="M18.9997 8.83398H11.833C11.5569 8.83398 11.333 9.05784 11.333 9.33398V19.0007C11.333 19.2768 11.5569 19.5007 11.833 19.5007H18.9997C19.2758 19.5007 19.4997 19.2768 19.4997 19.0007V9.33398C19.4997 9.05784 19.2758 8.83398 18.9997 8.83398Z" stroke="white"/>
<path d="M8.16667 13.834H1C0.723858 13.834 0.5 14.0578 0.5 14.334V19.0007C0.5 19.2768 0.723858 19.5007 1 19.5007H8.16667C8.44281 19.5007 8.66667 19.2768 8.66667 19.0007V14.334C8.66667 14.0578 8.44281 13.834 8.16667 13.834Z" stroke="white"/>
<path d="M18.9997 0.5H11.833C11.5569 0.5 11.333 0.723858 11.333 1V5.66667C11.333 5.94281 11.5569 6.16667 11.833 6.16667H18.9997C19.2758 6.16667 19.4997 5.94281 19.4997 5.66667V1C19.4997 0.723858 19.2758 0.5 18.9997 0.5Z" stroke="#81D4BB"/>
</svg>
