<svg width="20" height="20" viewBox="0 0 20 20" fill="none" xmlns="http://www.w3.org/2000/svg">
<path d="M2.83333 0.5H0.5" stroke="white" stroke-linecap="round"/>
<path d="M4.48154 3H18.6235C18.9632 3 19.204 3.33155 19.099 3.65463L16.4973 11.6546C16.4304 11.8606 16.2384 12 16.0218 12H5.58926C5.33962 12 5.12823 11.8159 5.09399 11.5686L3.98626 3.56858C3.94465 3.26804 4.17813 3 4.48154 3Z" fill="white" stroke="white" stroke-linecap="round"/>
<path d="M6.66667 19.5C7.311 19.5 7.83334 18.9776 7.83334 18.3333C7.83334 17.689 7.311 17.1666 6.66667 17.1666C6.02234 17.1666 5.5 17.689 5.5 18.3333C5.5 18.9776 6.02234 19.5 6.66667 19.5Z" fill="#81D4BB" stroke="#81D4BB"/>
<path d="M14.1667 19.5C14.811 19.5 15.3333 18.9776 15.3333 18.3333C15.3333 17.689 14.811 17.1666 14.1667 17.1666C13.5223 17.1666 13 17.689 13 18.3333C13 18.9776 13.5223 19.5 14.1667 19.5Z" fill="#81D4BB" stroke="#81D4BB"/>
<path d="M15.3334 14.6667H5.5" stroke="white" stroke-linecap="round"/>
<path d="M5.25749 14.589L2.92188 0.575378" stroke="white" stroke-linecap="round"/>
</svg>
