<svg width="20" height="20" viewBox="0 0 20 20" fill="none" xmlns="http://www.w3.org/2000/svg">
<path d="M19 0.5H1C0.723858 0.5 0.5 0.723858 0.5 1V4.83333C0.5 5.10947 0.723858 5.33333 1 5.33333H19C19.2761 5.33333 19.5 5.10947 19.5 4.83333V1C19.5 0.723858 19.2761 0.5 19 0.5Z" stroke="white"/>
<path d="M19 14.6667H1C0.723858 14.6667 0.5 14.8905 0.5 15.1667V19C0.5 19.2762 0.723858 19.5 1 19.5H19C19.2761 19.5 19.5 19.2762 19.5 19V15.1667C19.5 14.8905 19.2761 14.6667 19 14.6667Z" stroke="white"/>
<path d="M4 8H1C0.723858 8 0.5 8.22386 0.5 8.5V11.5C0.5 11.7761 0.723858 12 1 12H4C4.27614 12 4.5 11.7761 4.5 11.5V8.5C4.5 8.22386 4.27614 8 4 8Z" stroke="#81D4BB"/>
<path d="M7.16699 10.3333H19.5003" stroke="white" stroke-linecap="round"/>
</svg>
