<svg width="20" height="20" viewBox="0 0 20 20" fill="none" xmlns="http://www.w3.org/2000/svg">
<path d="M8.16667 0.5H1C0.723858 0.5 0.5 0.723858 0.5 1V8.16667C0.5 8.44281 0.723858 8.66667 1 8.66667H8.16667C8.44281 8.66667 8.66667 8.44281 8.66667 8.16667V1C8.66667 0.723858 8.44281 0.5 8.16667 0.5Z" fill="white" stroke="white"/>
<path d="M18.9997 0.5H11.833C11.5569 0.5 11.333 0.723858 11.333 1V8.16667C11.333 8.44281 11.5569 8.66667 11.833 8.66667H18.9997C19.2758 8.66667 19.4997 8.44281 19.4997 8.16667V1C19.4997 0.723858 19.2758 0.5 18.9997 0.5Z" fill="#81D4BB" stroke="#81D4BB"/>
<path d="M18.9997 11.3333H11.833C11.5569 11.3333 11.333 11.5572 11.333 11.8333V19C11.333 19.2761 11.5569 19.5 11.833 19.5H18.9997C19.2758 19.5 19.4997 19.2761 19.4997 19V11.8333C19.4997 11.5572 19.2758 11.3333 18.9997 11.3333Z" fill="white" stroke="white"/>
<path d="M8.16667 11.3333H1C0.723858 11.3333 0.5 11.5572 0.5 11.8333V19C0.5 19.2761 0.723858 19.5 1 19.5H8.16667C8.44281 19.5 8.66667 19.2761 8.66667 19V11.8333C8.66667 11.5572 8.44281 11.3333 8.16667 11.3333Z" fill="white" stroke="white"/>
</svg>
