<svg width="22" height="21" viewBox="0 0 22 21" fill="none" xmlns="http://www.w3.org/2000/svg">
<path d="M13.766 3.12766V1H1V16.3191H5.68085" stroke="#FFBF69" stroke-linecap="round" stroke-linejoin="round"/>
<path d="M7.88281 20.5V5.32977H13.6914V11.1383C13.6914 11.6906 14.1391 12.1383 14.6914 12.1383H20.4999V20.5H7.88281Z" stroke="white"/>
<path d="M14.1191 4.90176C13.9239 4.70649 13.6073 4.70649 13.412 4.90176C13.2168 5.09702 13.2168 5.4136 13.412 5.60886L14.1191 4.90176ZM20.2205 12.4174C20.4158 12.6126 20.7324 12.6126 20.9276 12.4174C21.1229 12.2221 21.1229 11.9055 20.9276 11.7103L20.2205 12.4174ZM13.412 5.60886L20.2205 12.4174L20.9276 11.7103L14.1191 4.90176L13.412 5.60886Z" fill="white"/>
<path d="M10.4365 14.5425H17.9471" stroke="white" stroke-linecap="round"/>
<path d="M10.4365 11.1383H11.1386" stroke="white" stroke-linecap="round"/>
<path d="M10.4365 8.58508H11.1386" stroke="white" stroke-linecap="round"/>
<path d="M10.4365 17.0957H17.9471" stroke="white" stroke-linecap="round"/>
</svg>
