<svg width="22" height="21" viewBox="0 0 22 21" fill="none" xmlns="http://www.w3.org/2000/svg">
<path d="M14.6664 5.83333C14.6664 8.13615 13.6648 10.9698 12.6272 13.2735C12.1128 14.4155 11.598 15.4092 11.2118 16.1172C11.1357 16.2567 11.0647 16.385 10.9997 16.5011C10.9347 16.385 10.8637 16.2567 10.7876 16.1172C10.4015 15.4092 9.88663 14.4155 9.37223 13.2735C8.3346 10.9698 7.33301 8.13615 7.33301 5.83333C7.33301 3.46246 7.79415 2.15378 8.42827 1.43535C9.04578 0.735733 9.91463 0.5 10.9997 0.5C12.0848 0.5 12.9536 0.735733 13.5711 1.43535C14.2053 2.15378 14.6664 3.46246 14.6664 5.83333Z" stroke="white"/>
<path d="M10.9997 5.33334C11.644 5.33334 12.1663 4.811 12.1663 4.16667C12.1663 3.52234 11.644 3 10.9997 3C10.3553 3 9.83301 3.52234 9.83301 4.16667C9.83301 4.811 10.3553 5.33334 10.9997 5.33334Z" stroke="white"/>
<path d="M1.5 19.5H20.5" stroke="#FFBF69" stroke-linecap="round" stroke-linejoin="round"/>
<path d="M20.5834 19.5833L17.25 16.25" stroke="#FFBF69" stroke-linecap="round" stroke-linejoin="round"/>
<path d="M14 16.1667H17.1667" stroke="#FFBF69" stroke-linecap="round" stroke-linejoin="round"/>
<path d="M1.41699 19.5833L4.75032 16.25" stroke="#FFBF69" stroke-linecap="round" stroke-linejoin="round"/>
<path d="M8 16.1667H4.83333" stroke="#FFBF69" stroke-linecap="round" stroke-linejoin="round"/>
</svg>
