<svg width="20" height="20" viewBox="0 0 20 20" fill="none" xmlns="http://www.w3.org/2000/svg">
<path d="M1.08944 4.03958L8.25611 5.34261C8.49386 5.38584 8.66667 5.5929 8.66667 5.83455V18.8018C8.66667 19.1137 8.38414 19.3495 8.07722 19.2937L0.910557 17.9907C0.672812 17.9475 0.5 17.7404 0.5 17.4988V4.53152C0.5 4.21956 0.782522 3.98378 1.08944 4.03958Z" stroke="white"/>
<path d="M3.04102 1.66661L9.99964 0.506836L16.9582 1.66661L9.99964 2.82638L3.04102 1.66661Z" stroke="#FFBF69"/>
<path d="M11.7435 5.34261L18.9102 4.03958C19.2171 3.98378 19.4996 4.21956 19.4996 4.53152V17.4988C19.4996 17.7404 19.3268 17.9475 19.0891 17.9907L11.9224 19.2937C11.6155 19.3495 11.333 19.1137 11.333 18.8018V5.83455C11.333 5.5929 11.5058 5.38584 11.7435 5.34261Z" stroke="white"/>
</svg>
