<svg width="28" height="28" viewBox="0 0 28 28" fill="none" xmlns="http://www.w3.org/2000/svg">
<circle opacity="0.1" cx="14" cy="14" r="14" fill="#FFAD01"/>
<path d="M17.7337 8.8674C16.0226 8.08963 12.3204 7.1874 11.2004 9.80074C10.0804 12.4141 13.5337 14.0007 15.4004 14.4674C16.3337 14.7785 18.2004 15.7741 18.2004 17.2674C18.2004 19.1341 14.9338 21.9341 10.2671 19.1341" stroke="#FFAD01" stroke-linecap="round"/>
<path d="M14.9673 6.06702C14.9673 5.79087 14.7434 5.56702 14.4673 5.56702C14.1911 5.56702 13.9673 5.79087 13.9673 6.06702H14.9673ZM14.9673 7.93368V6.06702H13.9673V7.93368H14.9673Z" fill="#FFAD01"/>
<path d="M14.9673 21.9336C14.9673 22.2097 14.7434 22.4336 14.4673 22.4336C14.1911 22.4336 13.9673 22.2097 13.9673 21.9336H14.9673ZM14.9673 20.0669V21.9336H13.9673V20.0669H14.9673Z" fill="#FFAD01"/>
</svg>
