<svg width="20" height="20" viewBox="0 0 20 20" fill="none" xmlns="http://www.w3.org/2000/svg">
<path d="M4 13.8333H1C0.723858 13.8333 0.5 14.0571 0.5 14.3333V18.9999C0.5 19.2761 0.723858 19.4999 1 19.4999H4C4.27614 19.4999 4.5 19.2761 4.5 18.9999V14.3333C4.5 14.0571 4.27614 13.8333 4 13.8333Z" fill="#4DC7DF" stroke="#4DC7DF"/>
<path d="M11.5003 7.16663H7.66699C7.39085 7.16663 7.16699 7.39048 7.16699 7.66663V18.9999C7.16699 19.2761 7.39085 19.4999 7.66699 19.4999H11.5003C11.7765 19.4999 12.0003 19.2761 12.0003 18.9999V7.66663C12.0003 7.39048 11.7765 7.16663 11.5003 7.16663Z" fill="#323232" stroke="#323232"/>
<path d="M19.0003 0.5H15.167C14.8908 0.5 14.667 0.723858 14.667 1V19C14.667 19.2761 14.8908 19.5 15.167 19.5H19.0003C19.2765 19.5 19.5003 19.2761 19.5003 19V1C19.5003 0.723858 19.2765 0.5 19.0003 0.5Z" fill="#323232" stroke="#323232"/>
</svg>
