<svg width="20" height="20" viewBox="0 0 20 20" fill="none" xmlns="http://www.w3.org/2000/svg">
<path d="M8.16667 0H1C0.447715 0 0 0.447715 0 1V1.5C0 2.05228 0.447715 2.5 1 2.5H8.16667C8.71896 2.5 9.16667 2.05228 9.16667 1.5V1C9.16667 0.447715 8.71896 0 8.16667 0Z" fill="#CAEEF5"/>
<path d="M8.16667 14H1C0.447715 14 0 14.4477 0 15V15.5C0 16.0523 0.447715 16.5 1 16.5H8.16667C8.71896 16.5 9.16667 16.0523 9.16667 15.5V15C9.16667 14.4477 8.71896 14 8.16667 14Z" fill="#CAEEF5"/>
<path d="M19 9H12C11.4477 9 11 9.44772 11 10C11 10.5523 11.4477 11 12 11H19C19.5523 11 20 10.5523 20 10C20 9.44772 19.5523 9 19 9Z" fill="#CAEEF5"/>
<path d="M2 0H1C0.447715 0 0 0.447715 0 1V10C0 10.5523 0.447715 11 1 11H2C2.55228 11 3 10.5523 3 10V1C3 0.447715 2.55228 0 2 0Z" fill="#CAEEF5"/>
<path d="M2 14H1C0.447715 14 0 14.4477 0 15V19C0 19.5523 0.447715 20 1 20H2C2.55228 20 3 19.5523 3 19V15C3 14.4477 2.55228 14 2 14Z" fill="#CAEEF5"/>
<path d="M13 9H12C11.4477 9 11 9.44772 11 10V19C11 19.5523 11.4477 20 12 20H13C13.5523 20 14 19.5523 14 19V10C14 9.44772 13.5523 9 13 9Z" fill="#CAEEF5"/>
<path d="M8.16667 0.5H1C0.723858 0.5 0.5 0.723858 0.5 1V10.6667C0.5 10.9428 0.723858 11.1667 1 11.1667H8.16667C8.44281 11.1667 8.66667 10.9428 8.66667 10.6667V1C8.66667 0.723858 8.44281 0.5 8.16667 0.5Z" stroke="#323232"/>
<path d="M18.9997 8.83398H11.833C11.5569 8.83398 11.333 9.05784 11.333 9.33398V19.0007C11.333 19.2768 11.5569 19.5007 11.833 19.5007H18.9997C19.2758 19.5007 19.4997 19.2768 19.4997 19.0007V9.33398C19.4997 9.05784 19.2758 8.83398 18.9997 8.83398Z" stroke="#323232"/>
<path d="M8.16667 13.834H1C0.723858 13.834 0.5 14.0578 0.5 14.334V19.0007C0.5 19.2768 0.723858 19.5007 1 19.5007H8.16667C8.44281 19.5007 8.66667 19.2768 8.66667 19.0007V14.334C8.66667 14.0578 8.44281 13.834 8.16667 13.834Z" stroke="#323232"/>
<path d="M18.9997 0.5H11.833C11.5569 0.5 11.333 0.723858 11.333 1V5.66667C11.333 5.94281 11.5569 6.16667 11.833 6.16667H18.9997C19.2758 6.16667 19.4997 5.94281 19.4997 5.66667V1C19.4997 0.723858 19.2758 0.5 18.9997 0.5Z" stroke="#4DC7DF"/>
</svg>
