<svg width="22" height="21" viewBox="0 0 22 21" fill="none" xmlns="http://www.w3.org/2000/svg">
<path d="M21 12H12V20H21V12Z" fill="#323232"/>
<path d="M14 5H8V20H14V5Z" fill="#323232"/>
<path d="M13.766 1V3.12766H5.68085V16.3191H1V1H13.766Z" fill="#4DC7DF" stroke="#4DC7DF" stroke-linecap="round" stroke-linejoin="round"/>
<path d="M7.88281 20.4999V5.32971H13.6914V11.1382C13.6914 11.6905 14.1391 12.1382 14.6914 12.1382H20.4999V20.4999H7.88281Z" stroke="#323232"/>
<path d="M14.1191 4.9017C13.9239 4.70643 13.6073 4.70643 13.412 4.9017C13.2168 5.09696 13.2168 5.41354 13.412 5.6088L14.1191 4.9017ZM20.2205 12.4173C20.4158 12.6125 20.7324 12.6125 20.9276 12.4173C21.1229 12.222 21.1229 11.9054 20.9276 11.7102L20.2205 12.4173ZM13.412 5.6088L20.2205 12.4173L20.9276 11.7102L14.1191 4.9017L13.412 5.6088Z" fill="#323232"/>
<path d="M10.4365 14.5425H17.9471" stroke="white" stroke-linecap="round"/>
<path d="M10.4365 11.1383H11.1386" stroke="white" stroke-linecap="round"/>
<path d="M10.4365 8.58508H11.1386" stroke="white" stroke-linecap="round"/>
<path d="M10.4365 17.0957H17.9471" stroke="white" stroke-linecap="round"/>
</svg>
