<svg width="20" height="20" viewBox="0 0 20 20" fill="none" xmlns="http://www.w3.org/2000/svg">
<g clip-path="url(#clip0)">
<path d="M19 0H1C0.447715 0 0 0.447715 0 1V1.5C0 2.05228 0.447715 2.5 1 2.5H19C19.5523 2.5 20 2.05228 20 1.5V1C20 0.447715 19.5523 0 19 0Z" fill="#CAEEF5"/>
<path d="M1.5 0H1C0.447715 0 0 0.447715 0 1V4.83333C0 5.38561 0.447715 5.83333 1 5.83333H1.5C2.05228 5.83333 2.5 5.38561 2.5 4.83333V1C2.5 0.447715 2.05228 0 1.5 0Z" fill="#CAEEF5"/>
<path d="M19 14.1667H1C0.447715 14.1667 0 14.6145 0 15.1667V15.6667C0 16.219 0.447715 16.6667 1 16.6667H19C19.5523 16.6667 20 16.219 20 15.6667V15.1667C20 14.6145 19.5523 14.1667 19 14.1667Z" fill="#CAEEF5"/>
<path d="M1.5 14.1667H1C0.447715 14.1667 0 14.6145 0 15.1667V19.0001C0 19.5524 0.447715 20.0001 1 20.0001H1.5C2.05228 20.0001 2.5 19.5524 2.5 19.0001V15.1667C2.5 14.6145 2.05228 14.1667 1.5 14.1667Z" fill="#CAEEF5"/>
<path d="M19 0.5H1C0.723858 0.5 0.5 0.723858 0.5 1V4.83333C0.5 5.10947 0.723858 5.33333 1 5.33333H19C19.2761 5.33333 19.5 5.10947 19.5 4.83333V1C19.5 0.723858 19.2761 0.5 19 0.5Z" stroke="#323232"/>
<path d="M19 14.6667H1C0.723858 14.6667 0.5 14.8906 0.5 15.1667V19.0001C0.5 19.2762 0.723858 19.5001 1 19.5001H19C19.2761 19.5001 19.5 19.2762 19.5 19.0001V15.1667C19.5 14.8906 19.2761 14.6667 19 14.6667Z" stroke="#323232"/>
<path d="M4 8H1C0.723858 8 0.5 8.22386 0.5 8.5V11.5C0.5 11.7761 0.723858 12 1 12H4C4.27614 12 4.5 11.7761 4.5 11.5V8.5C4.5 8.22386 4.27614 8 4 8Z" stroke="#4DC7DF"/>
<path d="M7.16699 10.3333H19.5003" stroke="#323232" stroke-linecap="round"/>
</g>
<defs>
<clipPath id="clip0">
<rect width="20" height="20" fill="white"/>
</clipPath>
</defs>
</svg>
