<svg width="20" height="20" viewBox="0 0 20 20" fill="none" xmlns="http://www.w3.org/2000/svg">
<path d="M1.5 0H1C0.447715 0 0 0.447715 0 1V4C0 4.55228 0.447715 5 1 5H1.5C2.05228 5 2.5 4.55228 2.5 4V1C2.5 0.447715 2.05228 0 1.5 0Z" fill="#CAEEF5"/>
<path d="M4 0H1C0.447715 0 0 0.447715 0 1V1.5C0 2.05228 0.447715 2.5 1 2.5H4C4.55228 2.5 5 2.05228 5 1.5V1C5 0.447715 4.55228 0 4 0Z" fill="#CAEEF5"/>
<path d="M9 0H8.5C7.94772 0 7.5 0.447715 7.5 1V4C7.5 4.55228 7.94772 5 8.5 5H9C9.55228 5 10 4.55228 10 4V1C10 0.447715 9.55228 0 9 0Z" fill="#CAEEF5"/>
<path d="M11.5 0H8.5C7.94772 0 7.5 0.447715 7.5 1V1.5C7.5 2.05228 7.94772 2.5 8.5 2.5H11.5C12.0523 2.5 12.5 2.05228 12.5 1.5V1C12.5 0.447715 12.0523 0 11.5 0Z" fill="#CAEEF5"/>
<path d="M16.5 0H16C15.4477 0 15 0.447715 15 1V4C15 4.55228 15.4477 5 16 5H16.5C17.0523 5 17.5 4.55228 17.5 4V1C17.5 0.447715 17.0523 0 16.5 0Z" fill="#CAEEF5"/>
<path d="M19 0H16C15.4477 0 15 0.447715 15 1V1.5C15 2.05228 15.4477 2.5 16 2.5H19C19.5523 2.5 20 2.05228 20 1.5V1C20 0.447715 19.5523 0 19 0Z" fill="#CAEEF5"/>
<path d="M16.5 7.5H16C15.4477 7.5 15 7.94772 15 8.5V11.5C15 12.0523 15.4477 12.5 16 12.5H16.5C17.0523 12.5 17.5 12.0523 17.5 11.5V8.5C17.5 7.94772 17.0523 7.5 16.5 7.5Z" fill="#CAEEF5"/>
<path d="M19 7.5H16C15.4477 7.5 15 7.94772 15 8.5V9C15 9.55228 15.4477 10 16 10H19C19.5523 10 20 9.55228 20 9V8.5C20 7.94772 19.5523 7.5 19 7.5Z" fill="#CAEEF5"/>
<path d="M1.5 7.5H1C0.447715 7.5 0 7.94772 0 8.5V11.5C0 12.0523 0.447715 12.5 1 12.5H1.5C2.05228 12.5 2.5 12.0523 2.5 11.5V8.5C2.5 7.94772 2.05228 7.5 1.5 7.5Z" fill="#CAEEF5"/>
<path d="M4 7.5H1C0.447715 7.5 0 7.94772 0 8.5V9C0 9.55228 0.447715 10 1 10H4C4.55228 10 5 9.55228 5 9V8.5C5 7.94772 4.55228 7.5 4 7.5Z" fill="#CAEEF5"/>
<path d="M1.5 15H1C0.447715 15 0 15.4477 0 16V19C0 19.5523 0.447715 20 1 20H1.5C2.05228 20 2.5 19.5523 2.5 19V16C2.5 15.4477 2.05228 15 1.5 15Z" fill="#CAEEF5"/>
<path d="M4 15H1C0.447715 15 0 15.4477 0 16V16.5C0 17.0523 0.447715 17.5 1 17.5H4C4.55228 17.5 5 17.0523 5 16.5V16C5 15.4477 4.55228 15 4 15Z" fill="#CAEEF5"/>
<path d="M9 15H8.5C7.94772 15 7.5 15.4477 7.5 16V19C7.5 19.5523 7.94772 20 8.5 20H9C9.55228 20 10 19.5523 10 19V16C10 15.4477 9.55228 15 9 15Z" fill="#CAEEF5"/>
<path d="M11.5 15H8.5C7.94772 15 7.5 15.4477 7.5 16V16.5C7.5 17.0523 7.94772 17.5 8.5 17.5H11.5C12.0523 17.5 12.5 17.0523 12.5 16.5V16C12.5 15.4477 12.0523 15 11.5 15Z" fill="#CAEEF5"/>
<path d="M16.5 15H16C15.4477 15 15 15.4477 15 16V19C15 19.5523 15.4477 20 16 20H16.5C17.0523 20 17.5 19.5523 17.5 19V16C17.5 15.4477 17.0523 15 16.5 15Z" fill="#CAEEF5"/>
<path d="M19 15H16C15.4477 15 15 15.4477 15 16V16.5C15 17.0523 15.4477 17.5 16 17.5H19C19.5523 17.5 20 17.0523 20 16.5V16C20 15.4477 19.5523 15 19 15Z" fill="#CAEEF5"/>
<path d="M11.5 8H8.5C8.22386 8 8 8.22386 8 8.5V11.5C8 11.7761 8.22386 12 8.5 12H11.5C11.7761 12 12 11.7761 12 11.5V8.5C12 8.22386 11.7761 8 11.5 8Z" stroke="#4DC7DF"/>
<path d="M11.5 0.5H8.5C8.22386 0.5 8 0.723858 8 1V4C8 4.27614 8.22386 4.5 8.5 4.5H11.5C11.7761 4.5 12 4.27614 12 4V1C12 0.723858 11.7761 0.5 11.5 0.5Z" stroke="#323232"/>
<path d="M4 0.5H1C0.723858 0.5 0.5 0.723858 0.5 1V4C0.5 4.27614 0.723858 4.5 1 4.5H4C4.27614 4.5 4.5 4.27614 4.5 4V1C4.5 0.723858 4.27614 0.5 4 0.5Z" stroke="#323232"/>
<path d="M4 8H1C0.723858 8 0.5 8.22386 0.5 8.5V11.5C0.5 11.7761 0.723858 12 1 12H4C4.27614 12 4.5 11.7761 4.5 11.5V8.5C4.5 8.22386 4.27614 8 4 8Z" stroke="#323232"/>
<path d="M4 15.5H1C0.723858 15.5 0.5 15.7239 0.5 16V19C0.5 19.2761 0.723858 19.5 1 19.5H4C4.27614 19.5 4.5 19.2761 4.5 19V16C4.5 15.7239 4.27614 15.5 4 15.5Z" stroke="#323232"/>
<path d="M11.5 15.5H8.5C8.22386 15.5 8 15.7239 8 16V19C8 19.2761 8.22386 19.5 8.5 19.5H11.5C11.7761 19.5 12 19.2761 12 19V16C12 15.7239 11.7761 15.5 11.5 15.5Z" stroke="#323232"/>
<path d="M19 15.5H16C15.7239 15.5 15.5 15.7239 15.5 16V19C15.5 19.2761 15.7239 19.5 16 19.5H19C19.2761 19.5 19.5 19.2761 19.5 19V16C19.5 15.7239 19.2761 15.5 19 15.5Z" stroke="#323232"/>
<path d="M19 8H16C15.7239 8 15.5 8.22386 15.5 8.5V11.5C15.5 11.7761 15.7239 12 16 12H19C19.2761 12 19.5 11.7761 19.5 11.5V8.5C19.5 8.22386 19.2761 8 19 8Z" stroke="#323232"/>
<path d="M19 0.5H16C15.7239 0.5 15.5 0.723858 15.5 1V4C15.5 4.27614 15.7239 4.5 16 4.5H19C19.2761 4.5 19.5 4.27614 19.5 4V1C19.5 0.723858 19.2761 0.5 19 0.5Z" stroke="#323232"/>
</svg>
