<svg width="20" height="20" viewBox="0 0 20 20" fill="none" xmlns="http://www.w3.org/2000/svg">
<path d="M2.50065 4.16626H0.833984V18.333H2.50065V4.16626Z" fill="#CAEEF5"/>
<path d="M13.3337 4.99976H11.667V19.1665H13.3337V4.99976Z" fill="#CAEEF5"/>
<path d="M8.67911 7.40408L8.96973 5.76294L0.497981 4.26274L0.207364 5.90387L8.67911 7.40408Z" fill="#CAEEF5"/>
<path d="M19.5951 5.80862L19.3115 4.16626L10.8335 5.63035L11.1171 7.27271L19.5951 5.80862Z" fill="#CAEEF5"/>
<path d="M1.08944 4.0397L8.25611 5.34273C8.49386 5.38596 8.66667 5.59302 8.66667 5.83467V18.8019C8.66667 19.1138 8.38414 19.3496 8.07722 19.2938L0.910557 17.9908C0.672812 17.9476 0.5 17.7405 0.5 17.4989V4.53164C0.5 4.21968 0.782522 3.9839 1.08944 4.0397Z" stroke="#323232"/>
<path d="M3.04102 1.66661L9.99964 0.506836L16.9582 1.66661L9.99964 2.82638L3.04102 1.66661Z" stroke="#4DC7DF"/>
<path d="M11.7435 5.34273L18.9102 4.0397C19.2171 3.9839 19.4996 4.21968 19.4996 4.53164V17.4989C19.4996 17.7405 19.3268 17.9476 19.0891 17.9908L11.9224 19.2938C11.6155 19.3496 11.333 19.1138 11.333 18.8019V5.83467C11.333 5.59302 11.5058 5.38596 11.7435 5.34273Z" stroke="#323232"/>
</svg>
