<svg width="20" height="20" viewBox="0 0 20 20" fill="none" xmlns="http://www.w3.org/2000/svg">
<path d="M4 13.8333H1C0.723858 13.8333 0.5 14.0572 0.5 14.3333V19C0.5 19.2761 0.723858 19.5 1 19.5H4C4.27614 19.5 4.5 19.2761 4.5 19V14.3333C4.5 14.0572 4.27614 13.8333 4 13.8333Z" stroke="#FF7769"/>
<path d="M11.5003 7.16669H7.66699C7.39085 7.16669 7.16699 7.39054 7.16699 7.66669V19C7.16699 19.2761 7.39085 19.5 7.66699 19.5H11.5003C11.7765 19.5 12.0003 19.2761 12.0003 19V7.66669C12.0003 7.39054 11.7765 7.16669 11.5003 7.16669Z" stroke="white"/>
<path d="M19.0003 0.5H15.167C14.8908 0.5 14.667 0.723858 14.667 1V19C14.667 19.2761 14.8908 19.5 15.167 19.5H19.0003C19.2765 19.5 19.5003 19.2761 19.5003 19V1C19.5003 0.723858 19.2765 0.5 19.0003 0.5Z" stroke="white"/>
</svg>
