<svg width="24" height="24" viewBox="0 0 24 24" fill="none" xmlns="http://www.w3.org/2000/svg">
<path d="M12.4756 3.08158L14.1867 8.34761C14.3875 8.96565 14.9634 9.38409 15.6133 9.38409H20.9973C21.478 9.38409 21.6818 9.99607 21.2971 10.2842L16.9468 13.5431C16.4308 13.9297 16.2195 14.6028 16.4221 15.2149L18.2351 20.6931C18.3891 21.1582 17.8514 21.5443 17.4599 21.2497L12.9018 17.8208C12.3678 17.4191 11.6324 17.4191 11.0984 17.8208L6.54038 21.2497C6.1488 21.5443 5.61116 21.1582 5.76512 20.693L7.57566 15.2223C7.78001 14.6048 7.56315 13.926 7.03865 13.5414L2.70718 10.3651C2.3201 10.0812 2.51653 9.46805 2.9965 9.46194L8.40307 9.39317C9.04583 9.38499 9.61193 8.96816 9.81057 8.3568L11.5246 3.08158C11.6742 2.62092 12.326 2.62093 12.4756 3.08158Z" fill="white" stroke="white"/>
<path d="M6 4.71387L7.28571 6.42815" stroke="#FF7769" stroke-linecap="round"/>
<path d="M12 21.8574V20.1431" stroke="#FF7769" stroke-linecap="round"/>
<path d="M3.42871 15.6348L5.06637 15.128" stroke="#FF7769" stroke-linecap="round"/>
<path d="M20.3932 15.7324L18.8574 14.9708" stroke="#FF7769" stroke-linecap="round"/>
<path d="M17.9996 4.71387L16.7139 6.42815" stroke="#FF7769" stroke-linecap="round"/>
</svg>
