<svg width="20" height="20" viewBox="0 0 20 20" fill="none" xmlns="http://www.w3.org/2000/svg">
<mask id="path-2-inside-1" fill="white">
<path d="M3.34593 2.53519C1.83438 3.88258 0.76748 5.6571 0.286365 7.62402C-0.194749 9.59093 -0.0674082 11.6576 0.651543 13.5505C1.37049 15.4435 2.64718 17.0736 4.31271 18.2253C5.97825 19.3769 7.95415 19.9957 9.97905 20C12.004 20.0042 13.9824 19.3936 15.6528 18.249C17.3231 17.1044 18.6066 15.4796 19.3335 13.5897C20.0604 11.6997 20.1964 9.63365 19.7235 7.66473C19.2506 5.69582 18.1912 3.91684 16.6853 2.56314L16.1416 3.16793C17.525 4.41154 18.4983 6.04585 18.9328 7.85465C19.3672 9.66344 19.2422 11.5615 18.5745 13.2978C17.9067 15.034 16.7276 16.5266 15.1931 17.5782C13.6586 18.6297 11.841 19.1906 9.98075 19.1867C8.12053 19.1829 6.30531 18.6143 4.77522 17.5563C3.24513 16.4984 2.07227 15.0008 1.41179 13.2618C0.751306 11.5228 0.634321 9.6242 1.07631 7.81724C1.5183 6.01028 2.49843 4.38007 3.88706 3.14225L3.34593 2.53519Z"/>
</mask>
<path d="M3.34593 2.53519C1.83438 3.88258 0.76748 5.6571 0.286365 7.62402C-0.194749 9.59093 -0.0674082 11.6576 0.651543 13.5505C1.37049 15.4435 2.64718 17.0736 4.31271 18.2253C5.97825 19.3769 7.95415 19.9957 9.97905 20C12.004 20.0042 13.9824 19.3936 15.6528 18.249C17.3231 17.1044 18.6066 15.4796 19.3335 13.5897C20.0604 11.6997 20.1964 9.63365 19.7235 7.66473C19.2506 5.69582 18.1912 3.91684 16.6853 2.56314L16.1416 3.16793C17.525 4.41154 18.4983 6.04585 18.9328 7.85465C19.3672 9.66344 19.2422 11.5615 18.5745 13.2978C17.9067 15.034 16.7276 16.5266 15.1931 17.5782C13.6586 18.6297 11.841 19.1906 9.98075 19.1867C8.12053 19.1829 6.30531 18.6143 4.77522 17.5563C3.24513 16.4984 2.07227 15.0008 1.41179 13.2618C0.751306 11.5228 0.634321 9.6242 1.07631 7.81724C1.5183 6.01028 2.49843 4.38007 3.88706 3.14225L3.34593 2.53519Z" stroke="white" stroke-width="2" mask="url(#path-2-inside-1)"/>
<rect x="9.16699" width="1.66667" height="10.8333" fill="#FF7769"/>
</svg>
