<svg width="24" height="25" viewBox="0 0 24 25" fill="none" xmlns="http://www.w3.org/2000/svg">
<path d="M22.7686 18.0254H12.375H1.23145C1.51132 17.8721 1.8382 17.7142 2.18492 17.5481C2.20473 17.5386 2.22461 17.5291 2.24455 17.5196C2.71306 17.2952 3.21323 17.0557 3.60413 16.8126C3.80822 16.6856 4.00621 16.5435 4.16153 16.3849C4.31089 16.2324 4.47286 16.0119 4.49805 15.7274C4.85391 11.7083 5.73031 7.9843 7.04767 5.28215C8.37847 2.55243 10.0716 1.02539 12 1.02539C13.9284 1.02539 15.6215 2.55243 16.9523 5.28215C18.2697 7.9843 19.1461 11.7083 19.5019 15.7274C19.5271 16.0119 19.6891 16.2324 19.8385 16.3849C19.9938 16.5435 20.1918 16.6856 20.3959 16.8126C20.7868 17.0557 21.2869 17.2952 21.7554 17.5195C21.7754 17.5291 21.7953 17.5386 21.8151 17.5481C22.1618 17.7142 22.4887 17.8721 22.7686 18.0254Z" stroke="#323232"/>
<path d="M12 21.0255H12L15.4646 21.0254C15.2219 22.7215 13.7632 24.0254 12 24.0254C10.2368 24.0254 8.77807 22.7216 8.53545 21.0254L9.17156 21.0254L12 21.0255Z" stroke="#323232"/>
</svg>
