<svg width="24" height="24" viewBox="0 0 24 24" fill="none" xmlns="http://www.w3.org/2000/svg">
<g opacity="0.7">
<path d="M23.7061 21.9178L17.9363 16.2458C19.3665 14.5316 20.2286 12.336 20.2286 9.94295C20.2286 4.45386 15.698 0 10.1143 0C4.52571 0 0 4.45386 0 9.94295C0 15.432 4.52571 19.8859 10.1143 19.8859C12.5486 19.8859 14.7771 19.0433 16.5208 17.6373L22.2906 23.3045C22.6824 23.6897 23.3143 23.6897 23.7061 23.3045C24.098 22.9242 24.098 22.2982 23.7061 21.9178ZM10.1143 17.9069C5.64245 17.9069 2.00816 14.3342 2.00816 9.94295C2.00816 5.55168 5.64245 1.97414 10.1143 1.97414C14.5812 1.97414 18.2204 5.55168 18.2204 9.94295C18.2204 14.3342 14.5812 17.9069 10.1143 17.9069Z" fill="#6B6B6B"/>
</g>
</svg>
