<svg width="20" height="20" viewBox="0 0 20 20" fill="none" xmlns="http://www.w3.org/2000/svg">
<path d="M13.6664 5.83333C13.6664 8.13615 12.6648 10.9698 11.6272 13.2735C11.1128 14.4155 10.598 15.4092 10.2118 16.1172C10.1357 16.2567 10.0647 16.385 9.99968 16.5011C9.93468 16.385 9.86365 16.2567 9.78759 16.1172C9.40142 15.4092 8.88663 14.4155 8.37223 13.2735C7.3346 10.9698 6.33301 8.13615 6.33301 5.83333C6.33301 3.46246 6.79415 2.15378 7.42827 1.43535C8.04578 0.735733 8.91463 0.5 9.99968 0.5C11.0848 0.5 11.9536 0.735733 12.5711 1.43535C13.2053 2.15378 13.6664 3.46246 13.6664 5.83333Z" fill="white" stroke="white"/>
<path d="M9.99968 5.33334C10.644 5.33334 11.1663 4.811 11.1663 4.16667C11.1663 3.52234 10.644 3 9.99968 3C9.35534 3 8.83301 3.52234 8.83301 4.16667C8.83301 4.811 9.35534 5.33334 9.99968 5.33334Z" stroke="#E5E5E5"/>
<path d="M10.0003 4.99998C10.4606 4.99998 10.8337 4.62688 10.8337 4.16665C10.8337 3.70641 10.4606 3.33331 10.0003 3.33331C9.54009 3.33331 9.16699 3.70641 9.16699 4.16665C9.16699 4.62688 9.54009 4.99998 10.0003 4.99998Z" fill="#E5E5E5"/>
<path d="M1.14062 19.5L3.90378 16.5H6.62319L9.38635 19.5H1.14062ZM18.86 19.5H10.6143L13.3774 16.5H16.0968L18.86 19.5ZM13.4963 16.371C13.4962 16.3711 13.4961 16.3712 13.496 16.3713L13.4963 16.371Z" fill="#4DC7DF" stroke="#4DC7DF" stroke-linecap="round" stroke-linejoin="round"/>
</svg>
