<svg width="20" height="20" viewBox="0 0 20 20" fill="none" xmlns="http://www.w3.org/2000/svg">
<path d="M5.60735 18.028C5.78474 17.6791 5.86028 17.2874 5.82533 16.8976C5.79038 16.5078 5.64635 16.1357 5.40973 15.824C5.17311 15.5123 4.85347 15.2735 4.48743 15.1351C4.12139 14.9966 3.72375 14.964 3.34006 15.0411C2.95637 15.1182 2.60215 15.3018 2.31797 15.5708C2.03378 15.8399 1.83113 16.1836 1.73323 16.5625C1.63533 16.9414 1.64614 17.3402 1.76441 17.7133C1.88269 18.0863 2.10364 18.4185 2.40198 18.6718L2.90408 18.0804C2.71684 17.9214 2.57816 17.713 2.50393 17.4788C2.4297 17.2447 2.42291 16.9944 2.48436 16.7566C2.5458 16.5187 2.67299 16.3031 2.85135 16.1342C3.02971 15.9653 3.25202 15.8501 3.49284 15.8017C3.73365 15.7533 3.98321 15.7738 4.21295 15.8607C4.44268 15.9476 4.64329 16.0974 4.7918 16.2931C4.94031 16.4887 5.03071 16.7222 5.05264 16.9669C5.07458 17.2115 5.02716 17.4574 4.91583 17.6763L5.60735 18.028Z" fill="#FFD6D2"/>
<path d="M18.9863 18.2558C19.1282 17.9767 19.1886 17.6633 19.1607 17.3515C19.1327 17.0396 19.0175 16.742 18.8282 16.4926C18.6389 16.2432 18.3832 16.0522 18.0903 15.9415C17.7975 15.8307 17.4794 15.8046 17.1725 15.8663C16.8655 15.9279 16.5821 16.0748 16.3548 16.2901C16.1274 16.5053 15.9653 16.7803 15.887 17.0834C15.8087 17.3865 15.8173 17.7056 15.9119 18.004C16.0066 18.3025 16.1833 18.5682 16.422 18.7708L16.8237 18.2977C16.6739 18.1705 16.5629 18.0038 16.5035 17.8164C16.4442 17.6291 16.4387 17.4289 16.4879 17.2386C16.537 17.0484 16.6388 16.8758 16.7815 16.7407C16.9242 16.6056 17.102 16.5135 17.2947 16.4748C17.4873 16.4361 17.687 16.4524 17.8708 16.5219C18.0545 16.5915 18.215 16.7113 18.3338 16.8679C18.4526 17.0244 18.525 17.2112 18.5425 17.4069C18.5601 17.6026 18.5221 17.7993 18.4331 17.9745L18.9863 18.2558Z" fill="#FFD6D2"/>
<path d="M3.19722 2.64998C3.30366 2.44067 3.34899 2.20562 3.32802 1.97175C3.30705 1.73787 3.22063 1.51463 3.07865 1.3276C2.93668 1.14057 2.7449 0.997307 2.52528 0.914228C2.30565 0.831149 2.06707 0.811611 1.83685 0.857851C1.60664 0.904092 1.39411 1.01425 1.2236 1.17569C1.05309 1.33713 0.931493 1.54333 0.872752 1.77068C0.814012 1.99802 0.820495 2.23732 0.891459 2.46115C0.962424 2.68498 1.095 2.8843 1.274 3.03627L1.57526 2.68143C1.46292 2.58605 1.37971 2.46096 1.33517 2.32048C1.29063 2.17999 1.28657 2.02981 1.32343 1.88712C1.3603 1.74443 1.43661 1.61502 1.54363 1.51369C1.65064 1.41237 1.78403 1.34324 1.92852 1.31422C2.07301 1.28519 2.22274 1.29746 2.36059 1.3496C2.49843 1.40174 2.61879 1.49165 2.7079 1.60904C2.797 1.72642 2.85124 1.86653 2.8644 2.01332C2.87756 2.1601 2.84911 2.30762 2.78231 2.43899L3.19722 2.64998Z" fill="#FFD6D2"/>
<path d="M16.5312 5.15022C16.6376 4.94091 16.683 4.70586 16.662 4.47199C16.641 4.23811 16.5546 4.01487 16.4126 3.82784C16.2707 3.64081 16.0789 3.49755 15.8593 3.41447C15.6396 3.33139 15.401 3.31186 15.1708 3.3581C14.9406 3.40434 14.7281 3.51449 14.5576 3.67593C14.3871 3.83737 14.2655 4.04357 14.2067 4.27092C14.148 4.49826 14.1545 4.73756 14.2254 4.96139C14.2964 5.18522 14.429 5.38454 14.608 5.53651L14.9092 5.18167C14.7969 5.08629 14.7137 4.9612 14.6692 4.82072C14.6246 4.68023 14.6205 4.53005 14.6574 4.38736C14.6943 4.24467 14.7706 4.11526 14.8776 4.01393C14.9846 3.91261 15.118 3.84348 15.2625 3.81446C15.407 3.78544 15.5567 3.7977 15.6946 3.84984C15.8324 3.90198 15.9528 3.99189 16.0419 4.10928C16.131 4.22666 16.1852 4.36677 16.1984 4.51356C16.2115 4.66034 16.1831 4.80786 16.1163 4.93923L16.5312 5.15022Z" fill="#FFD6D2"/>
<path d="M2.08333 3.66666C2.95778 3.66666 3.66666 2.95778 3.66666 2.08333C3.66666 1.20888 2.95778 0.5 2.08333 0.5C1.20888 0.5 0.5 1.20888 0.5 2.08333C0.5 2.95778 1.20888 3.66666 2.08333 3.66666Z" stroke="#323232"/>
<path d="M15.4163 6.16666C16.2908 6.16666 16.9997 5.45778 16.9997 4.58333C16.9997 3.70888 16.2908 3 15.4163 3C14.5419 3 13.833 3.70888 13.833 4.58333C13.833 5.45778 14.5419 6.16666 15.4163 6.16666Z" stroke="#323232"/>
<path d="M17.5 19.5C18.6046 19.5 19.5 18.6046 19.5 17.5C19.5 16.3954 18.6046 15.5 17.5 15.5C16.3954 15.5 15.5 16.3954 15.5 17.5C15.5 18.6046 16.3954 19.5 17.5 19.5Z" stroke="#323232"/>
<path d="M3.74968 19.5C5.08437 19.5 6.16635 18.418 6.16635 17.0833C6.16635 15.7486 5.08437 14.6666 3.74968 14.6666C2.41499 14.6666 1.33301 15.7486 1.33301 17.0833C1.33301 18.418 2.41499 19.5 3.74968 19.5Z" stroke="#323232"/>
<path d="M5.43359 15.5333L7.93359 12.2" stroke="#323232"/>
<path d="M2.91699 3.33337L7.79492 8.03874" stroke="#323232"/>
<path d="M12.5 11.7529L16.6666 15.8333" stroke="#323232"/>
<path d="M11.6318 7.97974L14.1318 5.47974" stroke="#323232"/>
<path d="M10.0003 12.8333C11.5651 12.8333 12.8337 11.5648 12.8337 9.99996C12.8337 8.43515 11.5651 7.16663 10.0003 7.16663C8.43552 7.16663 7.16699 8.43515 7.16699 9.99996C7.16699 11.5648 8.43552 12.8333 10.0003 12.8333Z" stroke="#FF7769"/>
</svg>
