<svg width="22" height="21" viewBox="0 0 22 21" fill="none" xmlns="http://www.w3.org/2000/svg">
<path d="M13.766 3.12766V1H1V16.3191H5.68085" stroke="#FF7769" stroke-linecap="round" stroke-linejoin="round"/>
<path d="M13.1913 4.82971H8.38281C7.83053 4.82971 7.38281 5.27743 7.38281 5.82971V6.3829C7.38281 6.93519 7.83053 7.3829 8.38281 7.3829H13.1913C13.7436 7.3829 14.1913 6.93519 14.1913 6.3829V5.82971C14.1913 5.27743 13.7436 4.82971 13.1913 4.82971Z" fill="#FFD6D2"/>
<path d="M8.936 5.68054H8.38281C7.83053 5.68054 7.38281 6.12826 7.38281 6.68054V19.9996C7.38281 20.5519 7.83053 20.9996 8.38281 20.9996H8.936C9.48829 20.9996 9.936 20.5519 9.936 19.9996V6.68054C9.936 6.12826 9.48829 5.68054 8.936 5.68054Z" fill="#FFD6D2"/>
<path d="M7.88281 20.4999V5.32971H13.6914V11.1382C13.6914 11.6905 14.1391 12.1382 14.6914 12.1382H20.4999V20.4999H7.88281Z" stroke="#323232"/>
<path d="M14.1191 4.9017C13.9239 4.70643 13.6073 4.70643 13.412 4.9017C13.2168 5.09696 13.2168 5.41354 13.412 5.6088L14.1191 4.9017ZM20.2205 12.4173C20.4158 12.6125 20.7324 12.6125 20.9276 12.4173C21.1229 12.222 21.1229 11.9054 20.9276 11.7102L20.2205 12.4173ZM13.412 5.6088L20.2205 12.4173L20.9276 11.7102L14.1191 4.9017L13.412 5.6088Z" fill="#323232"/>
<path d="M10.4365 14.5425H17.9471" stroke="#323232" stroke-linecap="round"/>
<path d="M10.4365 11.1383H11.1386" stroke="#323232" stroke-linecap="round"/>
<path d="M10.4365 8.58508H11.1386" stroke="#323232" stroke-linecap="round"/>
<path d="M10.4365 17.0957H17.9471" stroke="#323232" stroke-linecap="round"/>
</svg>
