<svg width="20" height="16" viewBox="0 0 20 16" fill="none" xmlns="http://www.w3.org/2000/svg">
<path d="M9.99967 7.06149L1.46973 0.500001L18.5296 0.5L9.99967 7.06149Z" stroke="#FF7769" stroke-linecap="round"/>
<path d="M1.53906 3.07666L3.07752 4.23051V14.6152H1.53906V3.07666Z" fill="#FFD6D2"/>
<path fill-rule="evenodd" clip-rule="evenodd" d="M9.59362 8.91551C9.95622 9.17528 10.447 9.1635 10.7967 8.88664L17.3974 3.66101C17.9122 3.25345 18.6759 3.53384 18.8047 4.17769C18.8681 4.49499 18.7521 4.82149 18.5026 5.02757L10.5898 11.5642C10.5763 11.5754 10.5623 11.5857 10.5481 11.5953C10.3492 11.7282 10.0732 11.7833 9.838 11.7392C9.75878 11.7244 9.68177 11.6901 9.61427 11.6349L1.29459 4.83685C1.11804 4.69258 1.01563 4.47664 1.01563 4.24864C1.01562 3.63029 1.71497 3.27101 2.21763 3.63113L9.59362 8.91551Z" fill="#FFD6D2"/>
<path d="M18.731 14.8845H1.26953V2.95654L9.37959 9.37701C9.7433 9.66494 10.2572 9.66495 10.621 9.37701L18.731 2.95654V14.8845Z" stroke="#323232"/>
</svg>
