<svg width="20" height="20" viewBox="0 0 20 20" fill="none" xmlns="http://www.w3.org/2000/svg">
<path d="M11.5 8H8.5C8.22386 8 8 8.22386 8 8.5V11.5C8 11.7761 8.22386 12 8.5 12H11.5C11.7761 12 12 11.7761 12 11.5V8.5C12 8.22386 11.7761 8 11.5 8Z" fill="#FF7769" stroke="#FF7769"/>
<path d="M11.5 0.5H8.5C8.22386 0.5 8 0.723858 8 1V4C8 4.27614 8.22386 4.5 8.5 4.5H11.5C11.7761 4.5 12 4.27614 12 4V1C12 0.723858 11.7761 0.5 11.5 0.5Z" fill="#323232" stroke="#323232"/>
<path d="M4 0.5H1C0.723858 0.5 0.5 0.723858 0.5 1V4C0.5 4.27614 0.723858 4.5 1 4.5H4C4.27614 4.5 4.5 4.27614 4.5 4V1C4.5 0.723858 4.27614 0.5 4 0.5Z" fill="#323232" stroke="#323232"/>
<path d="M4 8H1C0.723858 8 0.5 8.22386 0.5 8.5V11.5C0.5 11.7761 0.723858 12 1 12H4C4.27614 12 4.5 11.7761 4.5 11.5V8.5C4.5 8.22386 4.27614 8 4 8Z" fill="#323232" stroke="#323232"/>
<path d="M4 15.5H1C0.723858 15.5 0.5 15.7239 0.5 16V19C0.5 19.2761 0.723858 19.5 1 19.5H4C4.27614 19.5 4.5 19.2761 4.5 19V16C4.5 15.7239 4.27614 15.5 4 15.5Z" fill="#323232" stroke="#323232"/>
<path d="M11.5 15.5H8.5C8.22386 15.5 8 15.7239 8 16V19C8 19.2761 8.22386 19.5 8.5 19.5H11.5C11.7761 19.5 12 19.2761 12 19V16C12 15.7239 11.7761 15.5 11.5 15.5Z" fill="#323232" stroke="#323232"/>
<path d="M19 15.5H16C15.7239 15.5 15.5 15.7239 15.5 16V19C15.5 19.2761 15.7239 19.5 16 19.5H19C19.2761 19.5 19.5 19.2761 19.5 19V16C19.5 15.7239 19.2761 15.5 19 15.5Z" fill="#323232" stroke="#323232"/>
<path d="M19 8H16C15.7239 8 15.5 8.22386 15.5 8.5V11.5C15.5 11.7761 15.7239 12 16 12H19C19.2761 12 19.5 11.7761 19.5 11.5V8.5C19.5 8.22386 19.2761 8 19 8Z" fill="#323232" stroke="#323232"/>
<path d="M19 0.5H16C15.7239 0.5 15.5 0.723858 15.5 1V4C15.5 4.27614 15.7239 4.5 16 4.5H19C19.2761 4.5 19.5 4.27614 19.5 4V1C19.5 0.723858 19.2761 0.5 19 0.5Z" fill="#323232" stroke="#323232"/>
</svg>
