<svg width="20" height="20" viewBox="0 0 20 20" fill="none" xmlns="http://www.w3.org/2000/svg">
<path d="M19 19C19 16.3478 18.0518 13.8043 16.364 11.9289C14.6761 10.0536 12.3869 9 10 9C7.61305 9 5.32387 10.0536 3.63604 11.9289C1.94821 13.8043 1 16.3478 1 19H3.04894C3.04894 16.9516 3.78128 14.9871 5.08486 13.5387C6.38844 12.0903 8.15647 11.2766 10 11.2766C11.8435 11.2766 13.6116 12.0903 14.9151 13.5387C16.2187 14.9872 16.9511 16.9516 16.9511 19H19Z" fill="#FFD6D2"/>
<path d="M10.0003 6.16666C11.5651 6.16666 12.8337 4.89813 12.8337 3.33333C12.8337 1.76853 11.5651 0.5 10.0003 0.5C8.43552 0.5 7.16699 1.76853 7.16699 3.33333C7.16699 4.89813 8.43552 6.16666 10.0003 6.16666Z" stroke="#FF7769"/>
<path d="M18.9998 19.5H10.4165H0.999767C0.7118 19.5 0.520271 19.2739 0.5394 19.0421C0.987315 13.614 5.12391 8.83337 9.99977 8.83337C14.8757 8.83337 19.0123 13.614 19.4602 19.0421C19.4793 19.2739 19.2878 19.5 18.9998 19.5Z" stroke="#323232"/>
</svg>
