<svg width="38" height="38" viewBox="0 0 38 38" fill="none" xmlns="http://www.w3.org/2000/svg">
<circle opacity="0.1" cx="19" cy="19" r="19" fill="#F5695A"/>
<path d="M24.0669 12.0339C21.7447 10.9784 16.7202 9.75394 15.2002 13.3006C13.6802 16.8473 18.3669 19.0006 20.9002 19.6339C22.1669 20.0562 24.7003 21.4073 24.7003 23.4339C24.7003 25.9673 20.2669 29.7673 13.9336 25.9673" stroke="#F5695A" stroke-linecap="round"/>
<path d="M20.1338 8.23438C20.1338 7.95823 19.9099 7.73438 19.6338 7.73438C19.3576 7.73438 19.1338 7.95823 19.1338 8.23438H20.1338ZM20.1338 10.7677V8.23438H19.1338V10.7677H20.1338Z" fill="#F5695A"/>
<path d="M20.1338 29.7695C20.1338 30.0457 19.9099 30.2695 19.6338 30.2695C19.3576 30.2695 19.1338 30.0457 19.1338 29.7695H20.1338ZM20.1338 27.2362V29.7695H19.1338V27.2362H20.1338Z" fill="#F5695A"/>
</svg>
