<svg width="20" height="20" viewBox="0 0 20 20" fill="none" xmlns="http://www.w3.org/2000/svg">
<g clip-path="url(#clip0)">
<path d="M8.16667 0H1C0.447715 0 0 0.447715 0 1V1.5C0 2.05228 0.447715 2.5 1 2.5H8.16667C8.71896 2.5 9.16667 2.05228 9.16667 1.5V1C9.16667 0.447715 8.71896 0 8.16667 0Z" fill="#FFD6D2"/>
<path d="M1.5 0H1C0.447715 0 0 0.447715 0 1V8.16667C0 8.71896 0.447715 9.16667 1 9.16667H1.5C2.05228 9.16667 2.5 8.71896 2.5 8.16667V1C2.5 0.447715 2.05228 0 1.5 0Z" fill="#FFD6D2"/>
<path d="M8.16667 10.8333H1C0.447715 10.8333 0 11.281 0 11.8333V12.3333C0 12.8855 0.447715 13.3333 1 13.3333H8.16667C8.71896 13.3333 9.16667 12.8855 9.16667 12.3333V11.8333C9.16667 11.281 8.71896 10.8333 8.16667 10.8333Z" fill="#FFD6D2"/>
<path d="M1.5 10.8333H1C0.447715 10.8333 0 11.281 0 11.8333V18.9999C0 19.5522 0.447715 19.9999 1 19.9999H1.5C2.05228 19.9999 2.5 19.5522 2.5 18.9999V11.8333C2.5 11.281 2.05228 10.8333 1.5 10.8333Z" fill="#FFD6D2"/>
<path d="M18.9997 10.8333H11.833C11.2807 10.8333 10.833 11.281 10.833 11.8333V12.3333C10.833 12.8855 11.2807 13.3333 11.833 13.3333H18.9997C19.552 13.3333 19.9997 12.8855 19.9997 12.3333V11.8333C19.9997 11.281 19.552 10.8333 18.9997 10.8333Z" fill="#FFD6D2"/>
<path d="M12.333 10.8333H11.833C11.2807 10.8333 10.833 11.281 10.833 11.8333V18.9999C10.833 19.5522 11.2807 19.9999 11.833 19.9999H12.333C12.8853 19.9999 13.333 19.5522 13.333 18.9999V11.8333C13.333 11.281 12.8853 10.8333 12.333 10.8333Z" fill="#FFD6D2"/>
<path d="M8.16667 0.5H1C0.723858 0.5 0.5 0.723858 0.5 1V8.16667C0.5 8.44281 0.723858 8.66667 1 8.66667H8.16667C8.44281 8.66667 8.66667 8.44281 8.66667 8.16667V1C8.66667 0.723858 8.44281 0.5 8.16667 0.5Z" stroke="#323232"/>
<path d="M18.9997 0.5H11.833C11.5569 0.5 11.333 0.723858 11.333 1V8.16667C11.333 8.44281 11.5569 8.66667 11.833 8.66667H18.9997C19.2758 8.66667 19.4997 8.44281 19.4997 8.16667V1C19.4997 0.723858 19.2758 0.5 18.9997 0.5Z" stroke="#FF7769"/>
<path d="M18.9997 11.3333H11.833C11.5569 11.3333 11.333 11.5571 11.333 11.8333V18.9999C11.333 19.2761 11.5569 19.4999 11.833 19.4999H18.9997C19.2758 19.4999 19.4997 19.2761 19.4997 18.9999V11.8333C19.4997 11.5571 19.2758 11.3333 18.9997 11.3333Z" stroke="#323232"/>
<path d="M8.16667 11.3333H1C0.723858 11.3333 0.5 11.5571 0.5 11.8333V18.9999C0.5 19.2761 0.723858 19.4999 1 19.4999H8.16667C8.44281 19.4999 8.66667 19.2761 8.66667 18.9999V11.8333C8.66667 11.5571 8.44281 11.3333 8.16667 11.3333Z" stroke="#323232"/>
</g>
<defs>
<clipPath id="clip0">
<rect width="20" height="20" fill="white"/>
</clipPath>
</defs>
</svg>
