<svg width="20" height="21" viewBox="0 0 20 21" fill="none" xmlns="http://www.w3.org/2000/svg">
<path d="M9.36066 0.989949C9.68263 0.773071 10.1011 0.762128 10.4339 0.96188L10.6527 1.09315C11.267 1.4618 11.3057 2.33792 10.7263 2.75933L3.51464 8.00432C3.14374 8.27407 2.63689 8.25695 2.28504 7.96279L1.84396 7.59403C1.33317 7.16699 1.37451 6.3694 1.9267 5.99744L9.36066 0.989949Z" fill="#FFD6D2"/>
<path d="M10.2597 1.1023C9.93089 0.886225 9.50596 0.883018 9.17395 1.09411L8.85508 1.29684C8.25622 1.67758 8.23346 2.54357 8.81148 2.95525L16.1881 8.20906C16.565 8.47755 17.077 8.45229 17.4257 8.14798L17.9606 7.68119C18.4592 7.24611 18.4053 6.45546 17.8523 6.09205L10.2597 1.1023Z" fill="#FFD6D2"/>
<path d="M0.901367 6.8147L9.88892 0.822998L18.8765 6.8147L9.88892 12.8064L0.901367 6.8147Z" stroke="#323232"/>
<path d="M0.824219 10.5232L9.60741 16.5117C9.77732 16.6276 10.0008 16.6276 10.1707 16.5117L18.9539 10.5232" stroke="#FF7769" stroke-linecap="round" stroke-linejoin="round"/>
<path d="M0.824219 13.8193L9.60741 19.8079C9.77732 19.9237 10.0008 19.9237 10.1707 19.8079L18.9539 13.8193" stroke="#323232" stroke-linecap="round" stroke-linejoin="round"/>
</svg>
