<svg width="20" height="20" viewBox="0 0 20 20" fill="none" xmlns="http://www.w3.org/2000/svg">
<g clip-path="url(#clip0)">
<path d="M11.5003 6.66663H7.66699C7.11471 6.66663 6.66699 7.11434 6.66699 7.66663V8.16663C6.66699 8.71891 7.11471 9.16663 7.66699 9.16663H11.5003C12.0526 9.16663 12.5003 8.71891 12.5003 8.16663V7.66663C12.5003 7.11434 12.0526 6.66663 11.5003 6.66663Z" fill="#D9F2EB"/>
<path d="M8.16699 6.66663H7.66699C7.11471 6.66663 6.66699 7.11434 6.66699 7.66663V18.9999C6.66699 19.5522 7.11471 19.9999 7.66699 19.9999H8.16699C8.71928 19.9999 9.16699 19.5522 9.16699 18.9999V7.66663C9.16699 7.11434 8.71928 6.66663 8.16699 6.66663Z" fill="#D9F2EB"/>
<path d="M19.0003 0H15.167C14.6147 0 14.167 0.447715 14.167 1V1.5C14.167 2.05228 14.6147 2.5 15.167 2.5H19.0003C19.5526 2.5 20.0003 2.05228 20.0003 1.5V1C20.0003 0.447715 19.5526 0 19.0003 0Z" fill="#D9F2EB"/>
<path d="M15.667 0H15.167C14.6147 0 14.167 0.447715 14.167 1V19C14.167 19.5523 14.6147 20 15.167 20H15.667C16.2193 20 16.667 19.5523 16.667 19V1C16.667 0.447715 16.2193 0 15.667 0Z" fill="#D9F2EB"/>
<path d="M4 13.8333H1C0.723858 13.8333 0.5 14.0571 0.5 14.3333V18.9999C0.5 19.2761 0.723858 19.4999 1 19.4999H4C4.27614 19.4999 4.5 19.2761 4.5 18.9999V14.3333C4.5 14.0571 4.27614 13.8333 4 13.8333Z" stroke="#81D4BB"/>
<path d="M11.5003 7.16663H7.66699C7.39085 7.16663 7.16699 7.39048 7.16699 7.66663V18.9999C7.16699 19.2761 7.39085 19.4999 7.66699 19.4999H11.5003C11.7765 19.4999 12.0003 19.2761 12.0003 18.9999V7.66663C12.0003 7.39048 11.7765 7.16663 11.5003 7.16663Z" stroke="#323232"/>
<path d="M19.0003 0.5H15.167C14.8908 0.5 14.667 0.723858 14.667 1V19C14.667 19.2761 14.8908 19.5 15.167 19.5H19.0003C19.2765 19.5 19.5003 19.2761 19.5003 19V1C19.5003 0.723858 19.2765 0.5 19.0003 0.5Z" stroke="#323232"/>
</g>
<defs>
<clipPath id="clip0">
<rect width="20" height="20" fill="white"/>
</clipPath>
</defs>
</svg>
