<svg width="20" height="20" viewBox="0 0 20 20" fill="none" xmlns="http://www.w3.org/2000/svg">
<path d="M2.08333 3.66666C2.95778 3.66666 3.66666 2.95778 3.66666 2.08333C3.66666 1.20888 2.95778 0.5 2.08333 0.5C1.20888 0.5 0.5 1.20888 0.5 2.08333C0.5 2.95778 1.20888 3.66666 2.08333 3.66666Z" fill="#323232" stroke="#323232"/>
<path d="M15.4163 6.16666C16.2908 6.16666 16.9997 5.45778 16.9997 4.58333C16.9997 3.70888 16.2908 3 15.4163 3C14.5419 3 13.833 3.70888 13.833 4.58333C13.833 5.45778 14.5419 6.16666 15.4163 6.16666Z" fill="#323232" stroke="#323232"/>
<path d="M17.5 19.5C18.6046 19.5 19.5 18.6046 19.5 17.5C19.5 16.3954 18.6046 15.5 17.5 15.5C16.3954 15.5 15.5 16.3954 15.5 17.5C15.5 18.6046 16.3954 19.5 17.5 19.5Z" fill="#323232" stroke="#323232"/>
<path d="M3.74968 19.5C5.08437 19.5 6.16635 18.418 6.16635 17.0833C6.16635 15.7486 5.08437 14.6666 3.74968 14.6666C2.41499 14.6666 1.33301 15.7486 1.33301 17.0833C1.33301 18.418 2.41499 19.5 3.74968 19.5Z" fill="#323232" stroke="#323232"/>
<path d="M5.43359 15.5333L7.93359 12.2" stroke="#323232"/>
<path d="M2.91699 3.33337L7.79492 8.03874" stroke="#323232"/>
<path d="M12.5 11.7529L16.6666 15.8333" stroke="#323232"/>
<path d="M11.6318 7.97974L14.1318 5.47974" stroke="#323232"/>
<path d="M10.0003 12.8333C11.5651 12.8333 12.8337 11.5648 12.8337 9.99996C12.8337 8.43515 11.5651 7.16663 10.0003 7.16663C8.43552 7.16663 7.16699 8.43515 7.16699 9.99996C7.16699 11.5648 8.43552 12.8333 10.0003 12.8333Z" fill="#81D4BB" stroke="#81D4BB"/>
</svg>
