<svg width="24" height="24" viewBox="0 0 24 24" fill="none" xmlns="http://www.w3.org/2000/svg">
<path fill-rule="evenodd" clip-rule="evenodd" d="M10.9486 4.95031L11.0852 4.52972L11.4122 3.52326L11.5245 3.17777C11.6742 2.71711 12.3259 2.71711 12.4756 3.17777L12.5878 3.52326L12.9148 4.52972L13.0515 4.95031L14.3895 9.06828C14.4564 9.27429 14.6484 9.41377 14.865 9.41377H19.1949H19.6371H20.6954H21.0587C21.543 9.41377 21.7444 10.0336 21.3526 10.3183L21.0587 10.5318L20.2177 11.1428H13.7329C13.1541 10.8487 12.6975 10.3331 12.4874 9.68631L12 8.18638L11.5127 9.68631C11.178 10.7164 10.2181 11.4138 9.13504 11.4138H7.55791L8.83383 12.3408C9.48658 12.815 9.85653 13.5622 9.86441 14.3383L7.42478 20.4374L6.98927 20.7538L6.69538 20.9674C6.30352 21.2521 5.77628 20.869 5.92596 20.4083L6.03821 20.0628L6.36523 19.0564L6.50189 18.6358L7.8399 14.5178C7.90683 14.3118 7.83351 14.0861 7.65826 13.9588L4.15531 11.4138L3.79754 11.1538L2.94139 10.5318L2.6475 10.3183C2.25564 10.0336 2.45703 9.41377 2.94139 9.41377H3.30466H4.36292H4.80515H9.13504C9.35165 9.41377 9.54363 9.27429 9.61056 9.06828L10.9486 4.95031Z" fill="#D9F2EB"/>
<path d="M12.4755 3.08156L14.1866 8.34759C14.3874 8.96563 14.9633 9.38407 15.6132 9.38407H20.9972C21.4779 9.38407 21.6817 9.99606 21.297 10.2842L16.9467 13.5431C16.4307 13.9297 16.2194 14.6028 16.422 15.2149L18.235 20.6931C18.389 21.1582 17.8513 21.5443 17.4598 21.2497L12.9017 17.8208C12.3677 17.4191 11.6323 17.4191 11.0983 17.8208L6.54025 21.2497C6.14867 21.5443 5.61103 21.1582 5.76499 20.693L7.57553 15.2223C7.77988 14.6048 7.56302 13.926 7.03852 13.5414L2.70705 10.3651C2.31997 10.0812 2.5164 9.46803 2.99637 9.46192L8.40294 9.39315C9.0457 9.38497 9.6118 8.96815 9.81044 8.35679L11.5245 3.08156C11.6741 2.6209 12.3259 2.62091 12.4755 3.08156Z" stroke="#323232"/>
<path d="M6 4.71423L7.28571 6.42852" stroke="#81D4BB" stroke-linecap="round"/>
<path d="M12 21.8572L12 20.1429" stroke="#81D4BB" stroke-linecap="round"/>
<path d="M3.42871 15.6345L5.06637 15.1277" stroke="#81D4BB" stroke-linecap="round"/>
<path d="M20.3936 15.7324L18.8578 14.9708" stroke="#81D4BB" stroke-linecap="round"/>
<path d="M18 4.71423L16.7143 6.42852" stroke="#81D4BB" stroke-linecap="round"/>
</svg>
