<svg width="22" height="21" viewBox="0 0 22 21" fill="none" xmlns="http://www.w3.org/2000/svg">
<path d="M14.6661 5.83337C14.6661 7.7855 13.7726 10.199 12.8391 12.1729C12.3772 13.1494 11.9149 13.9992 11.5681 14.6049C11.5145 14.6985 11.4637 14.7862 11.4161 14.8676C11.3685 14.7862 11.3176 14.6985 11.264 14.6049C10.9172 13.9992 10.4549 13.1494 9.99302 12.1729C9.05949 10.199 8.16602 7.7855 8.16602 5.83337C8.16602 3.81226 8.57869 2.71599 9.13109 2.11994C9.67184 1.53648 10.4399 1.33337 11.4161 1.33337C12.3923 1.33337 13.1602 1.53648 13.701 2.11994C14.2534 2.71599 14.6661 3.81226 14.6661 5.83337Z" stroke="#D9F2EB"/>
<path d="M10.3332 1.27028C11.2162 1.01033 11.8793 0.620652 11.8144 0.3999C11.7494 0.179148 10.9809 0.210918 10.0979 0.470861C9.21484 0.730803 8.5517 1.12048 8.61669 1.34124C8.68168 1.56199 9.45018 1.53022 10.3332 1.27028Z" fill="#D9F2EB"/>
<path d="M8.63715 2.54845C9.12601 1.76852 9.36424 1.03718 9.16926 0.91497C8.97427 0.792756 8.41991 1.32594 7.93105 2.10587C7.4422 2.88581 7.20396 3.61714 7.39895 3.73936C7.59393 3.86157 8.14829 3.32838 8.63715 2.54845Z" fill="#D9F2EB"/>
<path d="M10.64 13.8388C9.98386 12.5448 9.23068 11.608 8.95776 11.7464C8.68485 11.8847 8.99555 13.0459 9.65173 14.34C10.3079 15.634 11.0611 16.5708 11.334 16.4324C11.6069 16.294 11.2962 15.1328 10.64 13.8388Z" fill="#D9F2EB"/>
<path d="M9.84219 11.5097C9.18601 10.2157 8.43283 9.27886 8.15991 9.41725C7.887 9.55564 8.19769 10.7168 8.85387 12.0109C9.51005 13.3049 10.2632 14.2417 10.5362 14.1033C10.8091 13.9649 10.4984 12.8037 9.84219 11.5097Z" fill="#D9F2EB"/>
<path d="M9.03606 9.06934C8.53595 7.70738 7.89767 6.6888 7.61043 6.79427C7.32318 6.89975 7.49574 8.08934 7.99584 9.45131C8.49595 10.8133 9.13423 11.8319 9.42147 11.7264C9.70872 11.6209 9.53616 10.4313 9.03606 9.06934Z" fill="#D9F2EB"/>
<path d="M14.6664 5.83333C14.6664 8.13615 13.6648 10.9698 12.6272 13.2735C12.1128 14.4155 11.598 15.4092 11.2118 16.1172C11.1357 16.2567 11.0647 16.385 10.9997 16.5011C10.9347 16.385 10.8637 16.2567 10.7876 16.1172C10.4015 15.4092 9.88663 14.4155 9.37223 13.2735C8.3346 10.9698 7.33301 8.13615 7.33301 5.83333C7.33301 3.46246 7.79415 2.15378 8.42827 1.43535C9.04578 0.735733 9.91463 0.5 10.9997 0.5C12.0848 0.5 12.9536 0.735733 13.5711 1.43535C14.2053 2.15378 14.6664 3.46246 14.6664 5.83333Z" stroke="#323232"/>
<path d="M10.9997 5.33334C11.644 5.33334 12.1663 4.811 12.1663 4.16667C12.1663 3.52234 11.644 3 10.9997 3C10.3553 3 9.83301 3.52234 9.83301 4.16667C9.83301 4.811 10.3553 5.33334 10.9997 5.33334Z" stroke="#323232"/>
<path d="M1.5 19.5H20.5" stroke="#81D4BB" stroke-linecap="round" stroke-linejoin="round"/>
<path d="M20.5834 19.5833L17.25 16.25" stroke="#81D4BB" stroke-linecap="round" stroke-linejoin="round"/>
<path d="M14 16.1667H17.1667" stroke="#81D4BB" stroke-linecap="round" stroke-linejoin="round"/>
<path d="M1.41699 19.5833L4.75032 16.25" stroke="#81D4BB" stroke-linecap="round" stroke-linejoin="round"/>
<path d="M8 16.1667H4.83333" stroke="#81D4BB" stroke-linecap="round" stroke-linejoin="round"/>
<path d="M11.0003 5.00004C11.4606 5.00004 11.8337 4.62694 11.8337 4.16671C11.8337 3.70647 11.4606 3.33337 11.0003 3.33337C10.5401 3.33337 10.167 3.70647 10.167 4.16671C10.167 4.62694 10.5401 5.00004 11.0003 5.00004Z" fill="#D9F2EB"/>
</svg>
