<svg width="20" height="20" viewBox="0 0 20 20" fill="none" xmlns="http://www.w3.org/2000/svg">
<path d="M1.08944 4.0397L8.25611 5.34273C8.49386 5.38596 8.66667 5.59302 8.66667 5.83467V18.8019C8.66667 19.1138 8.38414 19.3496 8.07722 19.2938L0.910557 17.9908C0.672812 17.9476 0.5 17.7405 0.5 17.4989V4.53164C0.5 4.21968 0.782522 3.9839 1.08944 4.0397Z" fill="#323232" stroke="#323232"/>
<path d="M3.04102 1.66661L9.99964 0.506836L16.9582 1.66661L9.99964 2.82638L3.04102 1.66661Z" fill="#81D4BB" stroke="#81D4BB"/>
<path d="M11.7435 5.34273L18.9102 4.0397C19.2171 3.9839 19.4996 4.21968 19.4996 4.53164V17.4989C19.4996 17.7405 19.3268 17.9476 19.0891 17.9908L11.9224 19.2938C11.6155 19.3496 11.333 19.1138 11.333 18.8019V5.83467C11.333 5.59302 11.5058 5.38596 11.7435 5.34273Z" fill="#323232" stroke="#323232"/>
</svg>
